<svg xmlns="http://www.w3.org/2000/svg"  viewBox="0 0 100 100" width="200px" height="200px"><path fill="#c7ede6" d="M88.724,55.548c0.3-0.616,0.566-1.264,0.796-1.943c2.633-7.77-1.349-17.078-9.733-19.325 c-0.906-11.384-8.906-19.193-17.941-20.526C51.505,12.23,42.032,18.799,38.88,29.24c-3.799-1.346-7.501-1.182-10.99,0.857 c-1.583,0.732-3.031,1.812-4.33,3.233c-1.907,2.086-3.147,4.719-3.652,7.495c-0.748,0.118-1.483,0.236-2.176,0.484 c-4.04,1.449-6.589,4.431-7.288,8.923c-0.435,2.797,0.443,5.587,0.933,6.714c1.935,4.455,6.422,6.98,10.981,6.312 c0.227-0.033,0.557,0.069,0.752,0.233c0.241,7.12,3.698,13.417,8.884,17.014c8.321,5.772,19.027,3.994,25.781-3.921 c2.894,2.96,6.338,4.398,10.384,3.876c4.023-0.519,7.147-2.739,9.426-6.349c1.053,0.283,2.051,0.691,3.083,0.804 c4.042,0.442,7.324-1.165,9.732-4.8c0.922-1.391,1.793-3.194,1.793-6.354C92.194,60.505,90.901,57.538,88.724,55.548z"/><path fill="#fff" d="M18.389,47.584H8.359c-0.276,0-0.5-0.224-0.5-0.5s0.224-0.5,0.5-0.5h10.03 c0.276,0,0.5,0.224,0.5,0.5S18.666,47.584,18.389,47.584z M21.27,47.584h-1.445c-0.276,0-0.5-0.224-0.5-0.5s0.224-0.5,0.5-0.5 h1.445c0.276,0,0.5,0.224,0.5,0.5S21.547,47.584,21.27,47.584z M25.325,47.584h-2.546c-0.276,0-0.5-0.224-0.5-0.5 s0.224-0.5,0.5-0.5h2.546c0.276,0,0.5,0.224,0.5,0.5S25.601,47.584,25.325,47.584z M25.325,49.449h-9.616 c-0.276,0-0.5-0.224-0.5-0.5s0.224-0.5,0.5-0.5h9.616c0.276,0,0.5,0.224,0.5,0.5S25.601,49.449,25.325,49.449z M13.977,49.449 h-0.58c-0.276,0-0.5-0.224-0.5-0.5s0.224-0.5,0.5-0.5h0.58c0.276,0,0.5,0.224,0.5,0.5S14.254,49.449,13.977,49.449z M11.6,49.449 h-1.456c-0.276,0-0.5-0.224-0.5-0.5s0.224-0.5,0.5-0.5H11.6c0.276,0,0.5,0.224,0.5,0.5S11.877,49.449,11.6,49.449z M20.736,45.719 h-5.027c-0.276,0-0.5-0.224-0.5-0.5s0.224-0.5,0.5-0.5h5.027c0.276,0,0.5,0.224,0.5,0.5S21.012,45.719,20.736,45.719z M20.736,43.854h-1.257c-0.276,0-0.5-0.224-0.5-0.5s0.224-0.5,0.5-0.5h1.257c0.276,0,0.5,0.224,0.5,0.5 S21.012,43.854,20.736,43.854z M17.467,51.314h-1.759c-0.276,0-0.5-0.224-0.5-0.5s0.224-0.5,0.5-0.5h1.759 c0.276,0,0.5,0.224,0.5,0.5S17.744,51.314,17.467,51.314z M74.415,25.263h-10.03c-0.276,0-0.5-0.224-0.5-0.5s0.224-0.5,0.5-0.5 h10.03c0.276,0,0.5,0.224,0.5,0.5S74.691,25.263,74.415,25.263z M77.297,25.263H75.85c-0.276,0-0.5-0.224-0.5-0.5 s0.224-0.5,0.5-0.5h1.446c0.276,0,0.5,0.224,0.5,0.5S77.573,25.263,77.297,25.263z M81.351,25.263h-2.546 c-0.276,0-0.5-0.224-0.5-0.5s0.224-0.5,0.5-0.5h2.546c0.276,0,0.5,0.224,0.5,0.5S81.628,25.263,81.351,25.263z M81.351,27.128 h-9.617c-0.276,0-0.5-0.224-0.5-0.5s0.224-0.5,0.5-0.5h9.617c0.276,0,0.5,0.224,0.5,0.5S81.628,27.128,81.351,27.128z M70.003,27.128h-0.58c-0.276,0-0.5-0.224-0.5-0.5s0.224-0.5,0.5-0.5h0.58c0.276,0,0.5,0.224,0.5,0.5S70.279,27.128,70.003,27.128z M67.626,27.128H66.17c-0.276,0-0.5-0.224-0.5-0.5s0.224-0.5,0.5-0.5h1.456c0.276,0,0.5,0.224,0.5,0.5S67.902,27.128,67.626,27.128 z M76.762,23.399h-5.028c-0.276,0-0.5-0.224-0.5-0.5s0.224-0.5,0.5-0.5h5.028c0.276,0,0.5,0.224,0.5,0.5 S77.039,23.399,76.762,23.399z M76.762,21.534h-1.258c-0.276,0-0.5-0.224-0.5-0.5s0.224-0.5,0.5-0.5h1.258 c0.276,0,0.5,0.224,0.5,0.5S77.039,21.534,76.762,21.534z M73.493,28.993h-1.759c-0.276,0-0.5-0.224-0.5-0.5s0.224-0.5,0.5-0.5 h1.759c0.276,0,0.5,0.224,0.5,0.5S73.769,28.993,73.493,28.993z"/><path fill="#fdfcef" d="M74.084,59.257c0,0,10.616,0,10.681,0c2.452,0,4.439-1.987,4.439-4.439 c0-2.139-1.513-3.924-3.527-4.344c0.023-0.187,0.039-0.377,0.039-0.57c0-2.539-2.058-4.598-4.597-4.598 c-1.499,0-2.827,0.721-3.666,1.831c-0.215-2.826-2.739-5.007-5.693-4.646c-2.16,0.264-3.947,1.934-4.344,4.073 c-0.127,0.686-0.114,1.352,0.013,1.977c-0.579-0.624-1.403-1.016-2.322-1.016c-1.68,0-3.052,1.308-3.16,2.961 c-0.763-0.169-1.593-0.158-2.467,0.17c-1.671,0.627-2.861,2.2-2.93,3.983c-0.099,2.533,1.925,4.617,4.435,4.617 c0.191,0,0.861,0,1.015,0h9.218"/><path fill="#472b29" d="M84.764,59.757h-10.68c-0.276,0-0.5-0.224-0.5-0.5s0.224-0.5,0.5-0.5h10.681 c2.172,0,3.939-1.768,3.939-3.939c0-1.854-1.316-3.476-3.13-3.854c-0.255-0.053-0.426-0.293-0.394-0.552 c0.021-0.167,0.035-0.336,0.035-0.508c0-2.26-1.838-4.098-4.097-4.098c-1.292,0-2.483,0.595-3.267,1.633 c-0.126,0.165-0.343,0.237-0.54,0.178c-0.2-0.059-0.342-0.234-0.358-0.441c-0.094-1.238-0.7-2.401-1.663-3.19 c-0.973-0.797-2.208-1.148-3.471-0.997c-1.946,0.238-3.556,1.746-3.913,3.669c-0.111,0.599-0.107,1.199,0.012,1.785 c0.044,0.22-0.062,0.442-0.262,0.544c-0.196,0.104-0.441,0.061-0.595-0.104c-0.513-0.552-1.208-0.856-1.956-0.856 c-1.4,0-2.568,1.096-2.66,2.494c-0.01,0.146-0.082,0.28-0.199,0.368c-0.116,0.087-0.266,0.118-0.408,0.088 c-0.753-0.167-1.469-0.118-2.184,0.149c-1.498,0.562-2.546,1.983-2.605,3.535c-0.043,1.084,0.347,2.109,1.097,2.889 c0.749,0.779,1.758,1.209,2.839,1.209h10.232c0.276,0,0.5,0.224,0.5,0.5s-0.224,0.5-0.5,0.5H60.985c-1.355,0-2.62-0.538-3.56-1.516 c-0.94-0.977-1.429-2.263-1.376-3.621c0.076-1.948,1.384-3.729,3.254-4.432c0.723-0.271,1.468-0.36,2.222-0.279 c0.362-1.655,1.842-2.885,3.581-2.885c0.604,0,1.194,0.151,1.721,0.432c0.004-0.327,0.036-0.655,0.098-0.983 c0.436-2.347,2.399-4.188,4.774-4.478c1.535-0.19,3.04,0.243,4.226,1.216c0.899,0.737,1.544,1.742,1.847,2.851 c0.919-0.808,2.095-1.256,3.348-1.256c2.811,0,5.097,2.287,5.097,5.098c0,0.064-0.002,0.128-0.004,0.192 c2.048,0.628,3.492,2.547,3.492,4.722C89.704,57.542,87.488,59.757,84.764,59.757z"/><path fill="#fdfcef" d="M86.562,50.994c-1.543-0.727-3.327-0.213-3.985,1.15c-0.082,0.169-0.142,0.344-0.182,0.521"/><path fill="#472b29" d="M82.394,52.915c-0.018,0-0.037-0.002-0.056-0.006c-0.134-0.031-0.219-0.165-0.188-0.3 c0.045-0.196,0.112-0.389,0.201-0.573c0.717-1.484,2.653-2.051,4.317-1.269c0.125,0.06,0.179,0.208,0.12,0.333 c-0.06,0.126-0.21,0.176-0.333,0.12c-1.418-0.671-3.057-0.205-3.653,1.032c-0.073,0.15-0.128,0.308-0.164,0.468 C82.612,52.835,82.508,52.915,82.394,52.915z"/><path fill="#fdfcee" d="M75.076,64.611V36.433c0-2.403-1.605-4.369-3.568-4.369H31.074c-1.962,0-3.568,1.966-3.568,4.369 v28.178"/><path fill="#472b29" d="M75.076,65.311c-0.387,0-0.7-0.313-0.7-0.7V36.433c0-2.023-1.286-3.669-2.867-3.669H31.074 c-1.581,0-2.867,1.646-2.867,3.669v28.178c0,0.387-0.313,0.7-0.7,0.7s-0.7-0.313-0.7-0.7V36.433c0-2.795,1.914-5.069,4.268-5.069 H71.51c2.354,0,4.268,2.274,4.268,5.069v28.178C75.776,64.998,75.463,65.311,75.076,65.311z"/><path fill="#c0e5e4" d="M72.572,39.342v22.766H30.636V59.21v-9.106V36.445h41.037h0.899V39.342z"/><path fill="#cdcbbd" d="M25.003,64.611v1.878c0,1.721,1.774,3.13,3.943,3.13h44.69c2.169,0,3.943-1.408,3.943-3.13v-1.878 H25.003z"/><path fill="#472b29" d="M73.636,70.319h-44.69c-2.561,0-4.644-1.719-4.644-3.83v-1.878c0-0.387,0.313-0.7,0.7-0.7H77.58 c0.387,0,0.7,0.313,0.7,0.7v1.878C78.28,68.6,76.197,70.319,73.636,70.319z M25.703,65.311v1.178c0,1.317,1.485,2.43,3.243,2.43 h44.69c1.758,0,3.243-1.112,3.243-2.43v-1.178H25.703z M51.604,34.567h-1.252c-0.172,0-0.313-0.141-0.313-0.313l0,0 c0-0.172,0.141-0.313,0.313-0.313h1.252c0.172,0,0.313,0.141,0.313,0.313l0,0C51.917,34.427,51.776,34.567,51.604,34.567z"/><path fill="#472b29" d="M53.482,67.741H49.1c-0.172,0-0.313-0.141-0.313-0.313l0,0c0-0.172,0.141-0.313,0.313-0.313h4.381 c0.172,0,0.313,0.141,0.313,0.313l0,0C53.795,67.6,53.654,67.741,53.482,67.741z M72.259,62.144H30.323 c-0.193,0-0.35-0.156-0.35-0.35V59.29c0-0.193,0.156-0.35,0.35-0.35s0.35,0.156,0.35,0.35v2.154H71.91V39.261 c0-0.193,0.156-0.35,0.35-0.35s0.35,0.156,0.35,0.35v22.533C72.609,61.988,72.453,62.144,72.259,62.144z M30.323,53.381 c-0.193,0-0.35-0.156-0.35-0.35V36.132c0-0.193,0.156-0.35,0.35-0.35H72.26c0.193,0,0.35,0.156,0.35,0.35s-0.156,0.35-0.35,0.35 H30.673v16.55C30.673,53.225,30.516,53.381,30.323,53.381z M30.323,57.763c-0.193,0-0.35-0.156-0.35-0.35V54.91 c0-0.193,0.156-0.35,0.35-0.35s0.35,0.156,0.35,0.35v2.504C30.673,57.607,30.516,57.763,30.323,57.763z"/><path fill="#fdfcef" d="M35.912,71.358c1.71,0,3.194,0,3.215,0c1.916,0,3.469-1.52,3.469-3.396 c0-1.636-1.182-3.001-2.756-3.323c0.018-0.143,0.031-0.288,0.031-0.436c0-1.942-1.609-3.517-3.593-3.517 c-1.172,0-2.209,0.551-2.865,1.401c-0.168-2.162-2.141-3.83-4.45-3.554c-1.688,0.202-3.084,1.479-3.395,3.116 c-0.1,0.525-0.089,1.034,0.01,1.512c-0.453-0.477-1.097-0.777-1.814-0.777c-1.313,0-2.385,1.001-2.47,2.265 c-0.596-0.129-1.245-0.121-1.928,0.13c-1.306,0.48-2.236,1.683-2.29,3.047c-0.077,1.937,1.504,3.532,3.467,3.532 c0.149,0,0.673,0,0.794,0h7.204 M30.03,71.358h0.327"/><path fill="#472b29" d="M39.127,71.858h-3.215c-0.276,0-0.5-0.224-0.5-0.5s0.224-0.5,0.5-0.5h3.215 c1.638,0,2.97-1.299,2.97-2.896c0-1.362-0.991-2.554-2.357-2.833c-0.257-0.053-0.429-0.295-0.396-0.555 c0.016-0.121,0.027-0.245,0.027-0.371c0-1.663-1.388-3.017-3.094-3.017c-0.978,0-1.878,0.439-2.47,1.206 c-0.125,0.164-0.338,0.231-0.539,0.174c-0.198-0.06-0.339-0.234-0.354-0.441c-0.071-0.912-0.506-1.74-1.227-2.331 c-0.743-0.61-1.688-0.879-2.665-0.765c-1.476,0.177-2.694,1.292-2.964,2.712c-0.084,0.443-0.081,0.887,0.009,1.317 c0.046,0.219-0.06,0.441-0.257,0.545c-0.196,0.104-0.44,0.064-0.595-0.098c-0.381-0.401-0.897-0.622-1.452-0.622 c-1.038,0-1.904,0.79-1.971,1.798c-0.01,0.145-0.082,0.278-0.198,0.366c-0.115,0.087-0.264,0.12-0.406,0.089 c-0.57-0.121-1.109-0.087-1.651,0.112c-1.128,0.414-1.917,1.458-1.962,2.598c-0.031,0.781,0.253,1.525,0.8,2.095 c0.567,0.591,1.337,0.916,2.167,0.916h7.998c0.276,0,0.5,0.224,0.5,0.5s-0.224,0.5-0.5,0.5h-7.998 c-1.089,0-2.142-0.446-2.889-1.224c-0.737-0.767-1.12-1.771-1.078-2.827c0.062-1.539,1.114-2.944,2.617-3.497 c0.548-0.201,1.107-0.279,1.689-0.229c0.331-1.268,1.506-2.197,2.882-2.197c0.431,0,0.854,0.094,1.24,0.269 c0.011-0.199,0.034-0.398,0.072-0.597c0.35-1.844,1.924-3.291,3.827-3.519c1.245-0.152,2.463,0.199,3.419,0.983 c0.667,0.548,1.146,1.255,1.398,2.048c0.717-0.568,1.609-0.882,2.557-0.882c2.257,0,4.094,1.802,4.094,4.017 c0,0.02,0,0.039-0.001,0.06c1.604,0.52,2.727,2.012,2.727,3.699C43.096,70.111,41.315,71.858,39.127,71.858z M30.357,71.858H30.03 c-0.276,0-0.5-0.224-0.5-0.5s0.224-0.5,0.5-0.5h0.327c0.276,0,0.5,0.224,0.5,0.5S30.633,71.858,30.357,71.858z"/><path fill="#472b29" d="M37.576,66.566c-0.019,0-0.037-0.002-0.057-0.007c-0.134-0.03-0.218-0.165-0.187-0.3 c0.035-0.152,0.087-0.3,0.155-0.438c0.555-1.122,2.084-1.539,3.409-0.925c0.126,0.058,0.181,0.206,0.122,0.331 c-0.058,0.126-0.208,0.18-0.331,0.122c-1.08-0.496-2.315-0.188-2.751,0.692c-0.052,0.104-0.091,0.216-0.118,0.331 C37.793,66.488,37.69,66.566,37.576,66.566z M32.892,71.858h-1.006c-0.276,0-0.5-0.224-0.5-0.5s0.224-0.5,0.5-0.5h1.006 c0.276,0,0.5,0.224,0.5,0.5S33.169,71.858,32.892,71.858z"/><path fill="#fefdef" d="M34.373,57.396c-0.554,0-1.004-0.44-1.004-0.983V42.1c0-0.542,0.45-0.983,1.004-0.983h7.254 c0.554,0,1.004,0.44,1.004,0.983v14.312c0,0.542-0.45,0.983-1.004,0.983L34.373,57.396L34.373,57.396z"/><path fill="#c5def0" d="M34.842,43.59h6.316v11.333h-6.316V43.59z"/><path fill="#e1e0d8" d="M69.611,55.634c0,0.972-0.852,1.761-1.899,1.761H47.288c-1.048,0-1.899-0.79-1.899-1.761V42.878 c0-0.972,0.852-1.761,1.899-1.761h20.423c1.048,0,1.899,0.79,1.899,1.761L69.611,55.634z"/><path fill="#c5def0" d="M48.611,55.438V43.074h17.222v12.364H48.611z"/><path fill="#472b29" d="M66.111,43.074v12.364c0,0.142-0.124,0.258-0.278,0.258h-2.361c-0.153,0-0.278-0.115-0.278-0.258 c0-0.142,0.124-0.258,0.278-0.258h2.083V43.332H48.889v11.848h9.977c0.153,0,0.278,0.115,0.278,0.258 c0,0.142-0.124,0.258-0.278,0.258H48.611c-0.153,0-0.278-0.115-0.278-0.258V43.074c0-0.142,0.124-0.258,0.278-0.258h17.222 C65.987,42.817,66.111,42.932,66.111,43.074z"/><path fill="#472b29" d="M62.477,55.438c0,0.142-0.124,0.258-0.278,0.258h-1.944c-0.153,0-0.278-0.115-0.278-0.258 c0-0.142,0.124-0.258,0.278-0.258h1.944C62.352,55.181,62.477,55.296,62.477,55.438z"/><circle cx="67.5" cy="49.256" r=".5" fill="#472b29"/><path fill="#472b29" d="M41,55.006h-6c-0.138,0-0.25-0.112-0.25-0.25v-11c0-0.138,0.112-0.25,0.25-0.25h6 c0.138,0,0.25,0.112,0.25,0.25v11C41.25,54.894,41.138,55.006,41,55.006z M35.25,54.506h5.5v-10.5h-5.5V54.506z"/><path fill="#472b29" d="M41.5,57.506h-7c-0.689,0-1.25-0.561-1.25-1.25v-14c0-0.689,0.561-1.25,1.25-1.25h7 c0.689,0,1.25,0.561,1.25,1.25v14C42.75,56.946,42.189,57.506,41.5,57.506z M34.5,41.506c-0.414,0-0.75,0.337-0.75,0.75v14 c0,0.413,0.336,0.75,0.75,0.75h7c0.414,0,0.75-0.337,0.75-0.75v-14c0-0.413-0.336-0.75-0.75-0.75H34.5z"/><g><path fill="#472b29" d="M39,42.881h-2c-0.138,0-0.25-0.112-0.25-0.25s0.112-0.25,0.25-0.25h2c0.138,0,0.25,0.112,0.25,0.25 S39.138,42.881,39,42.881z"/></g><g><path fill="#472b29" d="M46.875,50.756c-0.138,0-0.25-0.112-0.25-0.25v-2c0-0.138,0.112-0.25,0.25-0.25 s0.25,0.112,0.25,0.25v2C47.125,50.644,47.013,50.756,46.875,50.756z"/></g><g><path fill="#472b29" d="M67.5,57.506h-20c-1.241,0-2.25-1.01-2.25-2.25v-12c0-1.24,1.009-2.25,2.25-2.25h20 c1.241,0,2.25,1.01,2.25,2.25v12C69.75,56.497,68.741,57.506,67.5,57.506z M47.5,41.506c-0.965,0-1.75,0.785-1.75,1.75v12 c0,0.965,0.785,1.75,1.75,1.75h20c0.965,0,1.75-0.785,1.75-1.75v-12c0-0.965-0.785-1.75-1.75-1.75H47.5z"/></g></svg>